# xmcd CD database file
#
# Track frame offsets:
#	150
#	14613
#	31888
#	52487
#	93750
#	120460
#	140595
#	162327
#	179365
#	211330
#	234489
#	256936
#
# Disc length: 3715 seconds
#
# Revision: 0
# Processed by: cddbd v1.5.2PL0 Copyright (c) Steve Scherf et al.
# Submitted via: CDex 1.51
#
DISCID=a40e810c
DTITLE=Scottish Guitar Quartet - Landmarks
DYEAR=2004
DGENRE=Jazz
TTITLE0=It's A Beautiful Thing
TTITLE1=See You In Seattle
TTITLE2=Ebony Coast
TTITLE3=The Road to...La Mancha
TTITLE4=Every Road...Leads Somewhere
TTITLE5=This Song Reminds Me Of You...(To Mary)
TTITLE6=Running Round Trees
TTITLE7=October
TTITLE8=Phantassie Hill
TTITLE9=August Rain
TTITLE10=No Longer South Of This House
TTITLE11=The Gift
EXTD=YEAR: 2004
EXTT0=
EXTT1=
EXTT2=
EXTT3=
EXTT4=
EXTT5=
EXTT6=
EXTT7=
EXTT8=
EXTT9=
EXTT10=
EXTT11=
PLAYORDER=
